<?xml version="1.0" encoding="utf-8"?>
<!-- Generator: Adobe Illustrator 26.3.1, SVG Export Plug-In . SVG Version: 6.00 Build 0)  -->
<svg version="1.1" id="Layer_1" xmlns="http://www.w3.org/2000/svg" xmlns:xlink="http://www.w3.org/1999/xlink" x="0px" y="0px"
	 viewBox="0 0 362.4 142" style="enable-background:new 0 0 362.4 142;" xml:space="preserve">
<style type="text/css">
	.st0{fill:#1D5A8D;}
</style>
<image style="overflow:visible;enable-background:new    ;" width="512" height="512" xlink:href="B297A5724A5CAE13.png"  transform="matrix(0.2774 0 0 0.2774 0 0)">
</image>
<g>
	<path class="st0" d="M148.8,97l1-9.1l2.7-31.9l0.9-13.9c3.8,0.1,6.6,0.1,8.4,0.1c1.4,0,4,0,7.8-0.1c0.4,2.2,0.8,3.7,1,4.6
		c0.2,0.9,0.6,2.4,1.2,4.4c0.6,2,1.4,4.5,2.4,7.3c1.4,4.3,2.7,8.6,3.8,12.9l3.1,11.5l5.4-14.8l7.8-19.2c0.3-0.6,0.5-1.4,0.8-2.2
		s0.8-2.4,1.4-4.5c3.2,0.1,6,0.1,8.5,0.1c1.7,0,4.3,0,8-0.1c-0.4,7.7-0.7,16.3-0.8,25.6c-0.2,9.3-0.3,16.3-0.3,20.9
		c0,2.2,0,5,0.1,8.4c-2.7-0.1-4.5-0.1-5.4-0.1c-1.4,0-3.2,0-5.6,0.1c0.2-2.7,0.3-5,0.3-6.8l0.7-23.9c0.1-3.4,0.1-6.7,0.1-10l0-3.3
		l-14.8,39.1l-1.7,4.8c-2.6-0.1-4.4-0.1-5.4-0.1c-1.2,0-3.1,0-5.7,0.1l-6.9-24.8c-0.2-0.9-0.8-2.7-1.7-5.5l-2.5-8.2
		c-0.2-0.8-0.4-1.4-0.5-1.9s-0.4-1.6-0.8-3.3l-0.5,5.1c-0.1,1.6-0.3,4.4-0.6,8.2l-1.6,24.9c-0.1,1.2-0.1,3.1-0.1,5.5l-5.2-0.1
		C153.1,96.9,151.4,97,148.8,97z"/>
	<path class="st0" d="M215.5,97c2.8-4.9,6.1-11,9.8-18.3l10.6-20.3c3.3-6.3,6-11.7,8.2-16.3c3.5,0.1,6,0.1,7.4,0.1
		c2.5,0,5,0,7.5-0.1l5.7,16.4l12.5,34l1.7,4.4l-6-0.1c-1.4,0-3.7,0-7,0.1c-0.6-2.4-1.7-5.6-3-9.7c-1.4-4-2.6-7.3-3.5-9.9h-21.2
		C235,83.9,232,90.4,229,97l-6.6-0.1C221.2,96.9,218.9,97,215.5,97z M241.7,69.2h15.4l-6.3-18.6l-3.3,6.8L241.7,69.2z"/>
	<path class="st0" d="M283.8,97l1-9.1l2.7-31.9l0.9-13.9c3.8,0.1,6.6,0.1,8.4,0.1c1.4,0,4,0,7.8-0.1c0.4,2.2,0.8,3.7,1,4.6
		c0.2,0.9,0.6,2.4,1.2,4.4s1.4,4.5,2.4,7.3c1.4,4.3,2.7,8.6,3.8,12.9l3.1,11.5l5.4-14.8l7.8-19.2c0.3-0.6,0.5-1.4,0.8-2.2
		s0.8-2.4,1.4-4.5c3.2,0.1,6,0.1,8.5,0.1c1.7,0,4.3,0,8-0.1c-0.4,7.7-0.7,16.3-0.8,25.6c-0.2,9.3-0.3,16.3-0.3,20.9
		c0,2.2,0,5,0.1,8.4c-2.7-0.1-4.5-0.1-5.4-0.1c-1.4,0-3.2,0-5.6,0.1c0.2-2.7,0.3-5,0.3-6.8l0.7-23.9c0.1-3.4,0.1-6.7,0.1-10l0-3.3
		l-14.8,39.1l-1.7,4.8c-2.6-0.1-4.4-0.1-5.4-0.1c-1.2,0-3.1,0-5.7,0.1l-6.9-24.8c-0.2-0.9-0.8-2.7-1.7-5.5l-2.5-8.2
		c-0.2-0.8-0.4-1.4-0.5-1.9c-0.1-0.5-0.4-1.6-0.8-3.3l-0.5,5.1c-0.1,1.6-0.3,4.4-0.6,8.2l-1.6,24.9c-0.1,1.2-0.1,3.1-0.1,5.5
		l-5.2-0.1C288.1,96.9,286.4,97,283.8,97z"/>
</g>
</svg>
